<?xml version="1.0" encoding="utf-8"?>
<!-- Generator: Adobe Illustrator 22.0.0, SVG Export Plug-In . SVG Version: 6.00 Build 0)  -->
<svg version="1.1" id="Layer_1" xmlns="http://www.w3.org/2000/svg" xmlns:xlink="http://www.w3.org/1999/xlink" x="0px" y="0px"
	 viewBox="0 0 437.8 119.8" style="enable-background:new 0 0 437.8 119.8;" xml:space="preserve">
<style type="text/css">
	.st0{fill:#FFD111;}
	.st1{fill:#010101;}
	.st2{fill:#FFFFFF;}
</style>
<g>
	<path class="st0" d="M99.3,119.8H20.5C9.2,119.8,0,110.7,0,99.3V20.5C0,9.2,9.2,0,20.5,0h78.8c11.3,0,20.5,9.2,20.5,20.5v78.8
		C119.8,110.7,110.7,119.8,99.3,119.8z"/>
	<circle class="st1" cx="91.5" cy="59.7" r="7.7"/>
	<circle class="st1" cx="59.9" cy="59.7" r="7.7"/>
	<circle class="st1" cx="28.4" cy="59.7" r="7.7"/>
	<g>
		<path class="st2" d="M194.9,34.5v48.9h-13.5V55.7l-9.1,27.8h-11.7l-9.1-27.8v27.8h-13.7V34.5h16.7l12.1,31.8l11.7-31.8H194.9z"/>
		<path class="st2" d="M239.5,66.4h-25.7c0.2,4.4,2.2,6.6,5.8,6.6c1.3,0,2.5-0.3,3.3-1c0.9-0.6,1.5-1.5,1.8-2.6h14.4
			c-0.5,2.7-1.6,5.2-3.4,7.4c-1.8,2.2-4,3.9-6.7,5.2c-2.7,1.2-5.6,1.9-8.8,1.9c-3.9,0-7.3-0.8-10.3-2.4c-3-1.6-5.3-3.9-7-6.9
			c-1.7-3-2.5-6.6-2.5-10.7c0-4.1,0.8-7.6,2.5-10.6c1.7-3,4-5.3,7-6.9c3-1.6,6.4-2.4,10.3-2.4c3.9,0,7.3,0.8,10.3,2.4
			c3,1.6,5.3,3.8,6.9,6.7c1.6,2.9,2.5,6.3,2.5,10.1C239.8,64.2,239.7,65.3,239.5,66.4z M224.4,56.2c-1.1-1-2.5-1.5-4.2-1.5
			c-1.8,0-3.3,0.5-4.4,1.5c-1.1,1-1.8,2.5-2,4.5H226C226,58.7,225.5,57.2,224.4,56.2z"/>
		<path class="st2" d="M272.4,47.8c3.1,2.5,5,5.8,5.8,9.9h-12.8c-0.3-1.4-1-2.4-2-3.1c-1-0.7-2.2-1-3.6-1c-1,0-1.8,0.2-2.3,0.7
			c-0.5,0.4-0.8,1.1-0.8,1.8c0,1,0.6,1.7,1.7,2.2c1.1,0.5,3,1,5.6,1.6c3,0.6,5.5,1.3,7.5,2.1c2,0.7,3.7,1.9,5.1,3.6
			c1.5,1.7,2.2,3.9,2.2,6.7c0,2.3-0.6,4.3-1.9,6c-1.2,1.8-3.1,3.1-5.4,4.1c-2.4,1-5.2,1.5-8.4,1.5c-5.5,0-9.8-1.2-13-3.5
			c-3.2-2.4-5.2-5.7-5.9-10.1h13.1c0.2,1.4,0.8,2.5,1.8,3.2c1,0.7,2.3,1,3.9,1c1.1,0,1.9-0.2,2.4-0.7c0.6-0.5,0.8-1.1,0.8-1.8
			c0-1.1-0.6-1.9-1.8-2.4c-1.2-0.5-3.1-1-5.7-1.5c-3-0.6-5.4-1.3-7.3-2c-1.9-0.7-3.6-1.9-5-3.5c-1.4-1.6-2.1-3.8-2.1-6.6
			c0-3.5,1.4-6.4,4.1-8.6c2.7-2.2,6.6-3.3,11.7-3.3C265.2,44,269.3,45.3,272.4,47.8z"/>
		<path class="st2" d="M311.7,47.8c3.1,2.5,5,5.8,5.8,9.9h-12.8c-0.3-1.4-1-2.4-2-3.1c-1-0.7-2.2-1-3.6-1c-1,0-1.8,0.2-2.3,0.7
			c-0.5,0.4-0.8,1.1-0.8,1.8c0,1,0.6,1.7,1.7,2.2c1.1,0.5,3,1,5.6,1.6c3,0.6,5.5,1.3,7.5,2.1c2,0.7,3.7,1.9,5.1,3.6
			c1.5,1.7,2.2,3.9,2.2,6.7c0,2.3-0.6,4.3-1.9,6c-1.2,1.8-3.1,3.1-5.4,4.1c-2.4,1-5.2,1.5-8.4,1.5c-5.5,0-9.8-1.2-13-3.5
			c-3.2-2.4-5.2-5.7-5.9-10.1h13.1c0.2,1.4,0.8,2.5,1.8,3.2c1,0.7,2.3,1,3.9,1c1.1,0,1.9-0.2,2.4-0.7c0.6-0.5,0.8-1.1,0.8-1.8
			c0-1.1-0.6-1.9-1.8-2.4c-1.2-0.5-3.1-1-5.7-1.5c-3-0.6-5.4-1.3-7.3-2c-1.9-0.7-3.6-1.9-5-3.5c-1.4-1.6-2.1-3.8-2.1-6.6
			c0-3.5,1.4-6.4,4.1-8.6c2.7-2.2,6.6-3.3,11.7-3.3C304.6,44,308.7,45.3,311.7,47.8z"/>
		<path class="st2" d="M361.1,66.4h-25.7c0.2,4.4,2.2,6.6,5.8,6.6c1.3,0,2.5-0.3,3.3-1c0.9-0.6,1.5-1.5,1.8-2.6h14.4
			c-0.5,2.7-1.6,5.2-3.4,7.4c-1.8,2.2-4,3.9-6.7,5.2c-2.7,1.2-5.6,1.9-8.8,1.9c-3.9,0-7.3-0.8-10.3-2.4c-3-1.6-5.3-3.9-7-6.9
			c-1.7-3-2.5-6.6-2.5-10.7c0-4.1,0.8-7.6,2.5-10.6c1.7-3,4-5.3,7-6.9c3-1.6,6.4-2.4,10.3-2.4c3.9,0,7.3,0.8,10.3,2.4
			c3,1.6,5.3,3.8,6.9,6.7c1.6,2.9,2.5,6.3,2.5,10.1C361.4,64.2,361.3,65.3,361.1,66.4z M346,56.2c-1.1-1-2.5-1.5-4.2-1.5
			c-1.8,0-3.3,0.5-4.4,1.5c-1.1,1-1.8,2.5-2,4.5h12.1C347.6,58.7,347.1,57.2,346,56.2z"/>
		<path class="st2" d="M403.5,48.6c2.5,3,3.8,7,3.8,12.2v22.6h-13.5V62.5c0-2.3-0.6-4-1.8-5.3c-1.2-1.3-2.8-1.9-4.8-1.9
			c-2,0-3.7,0.7-4.9,2c-1.2,1.3-1.8,3.1-1.8,5.4v20.7h-13.7V44.5h13.7V51c1.1-2.1,2.7-3.7,4.9-5c2.1-1.2,4.6-1.9,7.5-1.9
			C397.4,44.1,400.9,45.6,403.5,48.6z"/>
		<path class="st2" d="M437.8,71.8v11.7h-5.6c-4.8,0-8.5-1.2-11.2-3.5c-2.7-2.4-4-6.3-4-11.7V55.9h-5V44.5h5v-9.4h13.7v9.4h7v11.4
			h-7v12.6c0,1.2,0.3,2.1,0.8,2.6c0.5,0.5,1.4,0.8,2.7,0.8H437.8z"/>
	</g>
</g>
</svg>
